<?xml version="1.0" standalone="no"?>
<!DOCTYPE svg PUBLIC "-//W3C//DTD SVG 20010904//EN"
 "http://www.w3.org/TR/2001/REC-SVG-20010904/DTD/svg10.dtd">
<svg version="1.0" xmlns="http://www.w3.org/2000/svg"
 width="1176.000000pt" height="1176.000000pt" viewBox="0 0 1176.000000 1176.000000"
 preserveAspectRatio="xMidYMid meet">
<metadata>
Created by potrace 1.14, written by Peter Selinger 2001-2017
</metadata>
<g transform="translate(0.000000,1176.000000) scale(0.100000,-0.100000)"
fill="#000000" stroke="none">
<path d="M5689 11683 c-14 -38 -8 -57 21 -61 55 -8 276 -88 310 -112 35 -25
122 -64 197 -88 60 -20 118 -54 196 -116 175 -140 337 -278 337 -288 0 -4 10
-16 22 -28 12 -11 19 -22 16 -25 -8 -8 93 -115 108 -115 15 0 102 -71 185
-150 64 -61 86 -78 112 -86 9 -4 17 -10 17 -14 0 -4 34 -32 75 -61 123 -88
139 -99 160 -119 11 -10 52 -39 90 -65 39 -26 81 -58 95 -71 14 -13 45 -42 70
-66 25 -24 63 -64 83 -90 21 -26 87 -96 147 -155 61 -59 135 -144 165 -188 31
-44 71 -100 90 -125 19 -25 46 -66 59 -92 14 -27 37 -60 51 -75 14 -15 25 -33
25 -40 0 -7 6 -16 13 -20 6 -4 34 -49 60 -100 26 -50 63 -107 82 -126 19 -19
35 -43 35 -54 0 -10 16 -41 36 -68 19 -28 46 -72 59 -100 12 -27 39 -75 59
-105 20 -30 46 -75 58 -100 12 -25 25 -47 28 -50 14 -10 39 -68 33 -74 -4 -3
-1 -6 5 -6 12 0 92 -137 143 -243 17 -37 36 -70 40 -73 5 -3 9 -11 9 -19 0 -8
17 -42 37 -77 55 -93 99 -173 139 -258 19 -41 53 -110 75 -152 21 -43 39 -86
39 -97 0 -10 11 -43 24 -72 14 -30 27 -72 29 -94 2 -22 9 -56 15 -75 27 -86
66 -276 82 -395 6 -49 24 -133 40 -185 27 -89 39 -142 46 -200 2 -14 10 -50
18 -80 8 -30 19 -93 25 -140 6 -47 13 -105 17 -130 18 -125 26 -731 12 -877
-11 -110 -11 -112 -40 -122 -15 -5 -28 -17 -28 -25 0 -16 -113 -116 -131 -116
-5 0 -28 -17 -52 -38 -84 -76 -248 -176 -452 -277 -44 -22 -82 -42 -85 -45 -4
-5 -107 -60 -150 -81 -34 -16 -98 -39 -140 -50 -24 -6 -66 -22 -92 -35 -28
-14 -77 -27 -125 -32 -52 -6 -95 -18 -130 -36 -32 -17 -84 -32 -141 -41 -49
-7 -107 -22 -128 -33 -44 -22 -75 -28 -227 -42 -59 -5 -117 -15 -129 -21 -25
-13 -76 -28 -123 -35 -16 -2 -36 -6 -44 -9 -8 -3 -44 -10 -82 -15 -37 -5 -87
-16 -111 -25 -25 -8 -73 -19 -109 -25 -35 -5 -82 -14 -104 -19 -106 -26 -133
-31 -170 -35 -67 -6 -215 -33 -300 -54 -44 -11 -107 -26 -140 -32 -33 -6 -98
-25 -145 -41 -80 -26 -153 -46 -275 -71 -79 -17 -184 -44 -260 -67 -38 -12
-128 -28 -200 -36 -71 -8 -146 -19 -165 -25 -19 -5 -49 -10 -67 -10 -17 0 -72
-14 -121 -30 -64 -21 -109 -30 -155 -30 -36 0 -78 -5 -94 -11 -15 -6 -77 -13
-138 -15 -60 -2 -175 -11 -255 -20 -80 -8 -167 -15 -195 -14 -160 5 -239 9
-312 15 -59 6 -87 4 -97 -5 -20 -16 -192 2 -182 19 3 4 -10 5 -28 3 -22 -3
-39 2 -50 13 -12 12 -27 16 -50 12 -31 -5 -32 -4 -34 30 -2 20 -8 45 -14 56
-5 11 -12 36 -13 56 -2 20 -11 74 -21 121 -9 47 -17 106 -18 132 0 25 -4 50
-8 54 -5 4 -8 22 -8 40 0 18 -8 57 -18 86 -36 102 -42 125 -42 156 0 18 -4 40
-9 50 -12 23 -31 107 -31 136 0 13 -11 57 -24 97 -13 41 -27 99 -30 129 -4 30
-18 91 -31 135 -29 97 -54 222 -59 290 -2 28 -13 82 -24 120 -11 39 -26 97
-32 130 -25 128 -44 214 -65 290 -9 33 -18 80 -20 105 -7 63 -29 184 -48 255
-13 52 -21 106 -32 215 -2 14 -10 54 -18 90 -49 215 -37 755 22 1005 6 22 25
99 44 170 19 72 37 147 41 167 8 45 54 148 111 249 24 41 51 102 60 135 10 32
24 66 31 75 8 8 14 22 14 30 0 8 20 55 45 104 24 50 45 93 45 98 0 6 27 55
131 232 12 22 34 54 48 71 23 28 63 91 66 104 3 16 33 60 65 97 20 23 58 78
84 122 26 44 78 124 117 178 38 53 69 102 69 109 0 7 17 39 38 71 21 32 54 90
74 129 20 39 57 103 82 141 25 39 51 86 57 104 7 19 22 45 34 59 12 14 27 39
34 55 6 17 24 44 39 60 15 17 34 46 43 65 9 19 48 71 85 114 72 82 107 127
147 186 13 19 39 51 57 70 18 19 47 62 65 96 17 33 46 80 64 105 17 24 48 69
68 99 30 46 110 144 161 198 6 7 12 17 12 22 0 19 178 185 218 202 24 11 46
26 49 34 6 15 73 54 94 54 6 0 20 11 30 25 14 17 37 28 78 36 46 9 62 17 72
36 12 22 11 26 -11 43 -32 24 -63 30 -84 14 -9 -6 -55 -25 -101 -40 -57 -19
-87 -34 -91 -46 -3 -10 -15 -18 -27 -18 -12 -1 -38 -9 -57 -20 -19 -10 -46
-24 -59 -30 -13 -6 -69 -38 -124 -71 -54 -33 -124 -69 -155 -79 -32 -10 -94
-37 -139 -59 -46 -23 -85 -41 -88 -41 -2 0 -65 -34 -140 -75 -74 -41 -139 -75
-143 -75 -5 0 -16 -8 -26 -18 -9 -11 -35 -25 -59 -32 -23 -7 -53 -23 -67 -35
-14 -12 -33 -25 -42 -28 -10 -4 -18 -11 -18 -17 0 -5 -17 -17 -37 -25 -21 -9
-47 -24 -58 -34 -11 -10 -41 -29 -66 -44 -25 -14 -72 -51 -105 -82 -32 -31
-75 -65 -94 -75 -19 -10 -60 -41 -90 -68 -30 -27 -74 -59 -98 -71 -24 -12 -46
-30 -49 -39 -4 -9 -21 -33 -39 -52 -32 -34 -75 -95 -168 -237 -25 -38 -63 -89
-85 -114 -23 -25 -54 -73 -70 -105 -16 -32 -39 -80 -51 -106 -13 -26 -34 -58
-47 -70 -13 -12 -23 -27 -23 -34 0 -7 -11 -30 -25 -50 -14 -20 -25 -42 -25
-49 0 -6 -9 -20 -21 -31 -11 -10 -18 -26 -16 -36 3 -10 1 -21 -4 -24 -5 -3 -9
-18 -9 -33 0 -18 -12 -38 -35 -61 -19 -19 -35 -43 -35 -54 0 -46 -81 -263
-113 -304 -6 -7 -27 -50 -47 -95 -20 -45 -48 -99 -63 -120 -14 -21 -31 -55
-38 -75 -7 -20 -34 -70 -60 -111 -27 -41 -62 -108 -80 -150 -17 -42 -51 -116
-76 -165 -24 -49 -50 -112 -58 -140 -7 -28 -25 -77 -39 -109 -17 -38 -30 -91
-37 -154 -6 -54 -17 -112 -24 -130 -8 -18 -16 -57 -19 -87 -2 -30 -9 -63 -15
-74 -6 -12 -11 -33 -11 -49 0 -58 -52 -230 -88 -294 -11 -19 -23 -65 -26 -104
-4 -38 -11 -99 -16 -135 -5 -36 -16 -128 -24 -205 -9 -77 -20 -165 -25 -195
-5 -30 -15 -98 -21 -150 -6 -52 -17 -120 -25 -150 -7 -30 -16 -75 -19 -100 -4
-25 -16 -61 -27 -79 -11 -18 -23 -57 -26 -85 -4 -28 -14 -68 -23 -88 -13 -30
-15 -61 -12 -170 6 -199 4 -231 -27 -368 -5 -26 -10 -80 -10 -120 0 -43 -6
-94 -15 -119 -9 -24 -16 -66 -16 -93 0 -27 -7 -81 -16 -119 -9 -39 -14 -79
-11 -90 3 -10 -4 -58 -14 -106 -21 -94 -33 -162 -49 -283 -31 -226 -34 -416
-9 -595 11 -77 22 -162 26 -189 l6 -49 -149 6 c-106 4 -160 10 -187 22 -22 9
-75 18 -120 20 -45 2 -106 10 -135 18 l-53 14 2 -68 c1 -38 4 -67 6 -65 3 2
19 0 36 -6 39 -12 260 -37 422 -47 66 -5 133 -13 148 -20 15 -6 32 -10 38 -8
6 1 20 -27 31 -63 11 -36 23 -69 28 -75 4 -5 10 -35 14 -65 8 -63 54 -210 72
-225 6 -5 17 -37 24 -70 7 -37 29 -87 56 -131 24 -39 44 -79 44 -89 0 -10 14
-40 30 -67 17 -26 30 -50 30 -53 0 -2 14 -24 30 -48 17 -25 30 -49 30 -53 1
-36 116 -178 275 -340 44 -45 107 -111 141 -146 34 -34 78 -74 98 -88 25 -16
46 -43 62 -78 17 -37 29 -52 39 -48 18 6 55 -43 55 -74 0 -13 8 -24 19 -27 10
-3 26 -21 35 -41 9 -21 33 -47 52 -60 31 -20 33 -25 22 -45 -7 -13 -13 -66
-14 -127 -3 -138 17 -235 63 -303 19 -28 41 -66 48 -84 8 -18 19 -33 24 -33 6
0 11 -6 11 -13 0 -8 16 -28 35 -46 19 -17 35 -35 35 -39 0 -4 27 -36 60 -71
33 -35 60 -72 60 -82 0 -24 110 -122 179 -158 11 -7 42 -32 67 -56 25 -25 50
-45 56 -45 5 0 33 -16 62 -35 29 -19 57 -35 62 -35 5 0 36 -24 69 -53 75 -67
144 -114 179 -123 14 -3 29 -10 32 -15 3 -5 26 -19 52 -30 26 -12 55 -28 65
-37 9 -8 29 -16 45 -18 44 -4 104 -22 115 -33 6 -6 22 -11 35 -11 13 0 37 -11
53 -25 16 -13 45 -29 64 -34 19 -5 48 -19 64 -30 16 -12 33 -20 38 -19 19 5
120 -15 140 -28 12 -8 29 -14 38 -14 9 0 35 -9 58 -19 87 -39 119 -51 128 -45
5 3 35 -7 67 -21 31 -15 75 -28 97 -29 22 0 47 -5 55 -11 36 -23 133 -29 530
-32 352 -3 435 -1 485 11 80 20 137 30 153 27 8 -1 19 2 25 7 20 16 262 73
324 76 32 2 83 11 113 20 30 9 109 25 174 36 76 13 149 33 200 54 45 19 101
38 126 41 24 4 51 11 60 15 78 38 126 55 188 66 44 7 108 30 165 57 50 25 114
48 141 52 27 4 58 10 70 15 11 5 55 19 96 31 41 12 99 33 130 47 70 31 138 52
171 52 14 0 34 7 45 15 10 8 33 15 50 15 30 0 109 20 162 41 13 5 32 9 43 9
60 0 146 78 202 183 63 119 70 131 105 173 18 21 32 49 32 61 0 12 5 25 10 28
6 3 33 54 60 112 28 60 69 127 92 153 53 59 118 145 118 157 0 15 77 91 99 98
11 3 21 11 21 16 0 16 25 10 37 -10 28 -44 123 -28 123 21 0 10 5 24 10 31 6
7 21 28 35 47 13 19 36 51 49 70 14 19 37 76 51 125 14 50 38 108 53 129 65
94 89 133 102 166 7 19 21 44 31 55 10 11 26 38 36 60 10 22 28 54 39 70 12
17 27 57 34 90 7 33 29 94 48 135 47 100 114 340 127 455 8 75 23 121 51 160
14 19 24 53 28 90 11 105 13 119 29 175 8 30 17 74 21 98 7 48 47 176 69 219
17 35 55 286 50 333 -4 29 19 195 33 244 8 27 14 73 14 101 0 28 4 76 9 106
10 56 25 273 25 369 0 30 -4 111 -9 180 -5 69 -10 175 -10 235 0 61 -4 143 -9
182 -9 85 -1 94 68 75 37 -10 42 -9 55 8 7 11 20 20 27 20 8 0 14 4 14 10 0 5
18 19 40 30 22 11 40 25 40 31 0 17 69 81 134 123 32 21 80 61 107 87 49 48
49 49 49 113 l0 65 -31 -9 c-16 -5 -52 -24 -78 -43 -26 -19 -57 -38 -69 -41
-12 -4 -45 -27 -73 -51 -29 -25 -56 -42 -60 -39 -4 2 -15 -7 -24 -20 -9 -14
-42 -39 -73 -57 -31 -17 -74 -46 -95 -63 -50 -40 -57 -28 -57 84 0 150 -8 418
-14 447 -3 15 -8 55 -11 88 -3 33 -7 67 -10 75 -3 13 -24 176 -40 320 -3 25
-8 100 -11 165 -3 66 -9 124 -15 130 -5 5 -9 30 -9 56 0 25 -7 66 -16 90 -15
41 -44 172 -58 264 -8 44 -20 86 -67 220 -17 50 -33 104 -36 120 -2 17 -13 48
-23 70 -33 72 -57 139 -69 200 -7 33 -17 70 -21 81 -5 12 -12 43 -16 70 -4 27
-20 74 -35 105 -16 31 -29 66 -29 78 0 12 -7 35 -15 50 -8 16 -24 56 -35 90
-43 122 -114 240 -204 335 -31 32 -56 64 -56 70 0 7 -12 19 -27 29 -51 31
-150 132 -172 174 -11 23 -31 48 -44 54 -38 21 -137 128 -137 149 0 11 -35 55
-81 102 -44 46 -90 102 -102 125 -12 24 -52 73 -87 110 -36 38 -81 86 -99 108
-49 58 -210 233 -250 272 -41 39 -449 243 -487 243 -8 0 -48 15 -87 34 -85 40
-109 50 -120 48 -4 -1 -43 16 -88 38 -44 23 -99 45 -122 50 -23 5 -67 15 -97
21 -94 20 -223 59 -263 80 -21 11 -42 17 -47 14 -5 -3 -12 0 -15 5 -4 7 -19 8
-37 5 -20 -5 -28 -4 -24 3 7 11 -103 110 -195 177 -31 22 -67 56 -80 75 -42
61 -282 291 -329 315 -25 13 -68 43 -95 68 -61 54 -84 66 -205 106 -52 18
-115 45 -140 61 -25 15 -76 38 -115 51 -38 12 -86 29 -105 37 -115 51 -156 55
-171 15z m-779 -421 c0 -7 -17 -29 -122 -154 -40 -47 -88 -118 -88 -130 0 -5
-17 -30 -37 -55 -21 -25 -47 -61 -58 -78 -47 -76 -78 -117 -118 -157 -23 -24
-51 -61 -62 -82 -11 -22 -42 -62 -68 -90 -73 -77 -130 -154 -168 -226 -19 -36
-53 -84 -77 -108 -25 -25 -45 -56 -49 -75 -8 -42 -59 -147 -105 -217 -19 -30
-66 -111 -103 -180 -85 -157 -169 -285 -206 -311 -16 -11 -29 -27 -29 -36 0
-26 -28 -76 -75 -133 -25 -30 -45 -59 -45 -64 0 -5 -16 -28 -35 -52 -19 -23
-35 -46 -35 -51 0 -16 -84 -167 -128 -229 -23 -32 -51 -88 -63 -124 -11 -36
-28 -78 -38 -95 -9 -16 -27 -59 -40 -95 -45 -125 -74 -195 -90 -220 -70 -105
-120 -246 -176 -490 -7 -30 -20 -80 -28 -110 -24 -83 -66 -467 -53 -488 3 -5
0 -53 -6 -108 -8 -85 -7 -117 10 -219 10 -66 17 -138 15 -160 -3 -25 7 -87 27
-164 17 -69 29 -134 26 -145 -6 -21 18 -137 36 -176 6 -14 11 -29 10 -33 -4
-16 31 -195 70 -357 21 -91 46 -194 54 -230 8 -36 19 -80 25 -97 5 -18 12 -54
14 -81 2 -27 9 -61 15 -76 5 -15 10 -49 10 -76 0 -29 12 -81 30 -130 20 -56
32 -109 36 -168 4 -50 17 -117 30 -156 13 -38 24 -86 24 -105 0 -20 9 -56 20
-80 11 -24 20 -54 20 -66 0 -13 5 -36 12 -52 6 -15 15 -55 19 -88 5 -33 13
-82 19 -110 6 -27 15 -86 19 -130 5 -44 18 -114 30 -155 11 -41 25 -93 30
-115 5 -22 19 -78 31 -125 12 -47 24 -100 27 -118 3 -18 9 -35 14 -38 5 -3 9
-21 9 -40 0 -20 9 -56 20 -82 26 -63 57 -193 65 -272 4 -36 16 -84 26 -108 11
-24 19 -48 18 -55 -1 -7 1 -19 4 -27 3 -8 11 -35 17 -60 12 -44 22 -72 61
-158 10 -23 19 -50 19 -58 0 -9 6 -30 14 -47 8 -18 22 -56 30 -85 8 -29 24
-64 36 -79 11 -14 20 -31 20 -37 0 -6 9 -19 20 -29 12 -10 18 -22 15 -27 -3
-6 -2 -10 4 -10 5 0 13 -10 16 -22 11 -37 57 -131 77 -157 10 -13 18 -34 18
-47 0 -13 9 -41 20 -61 11 -21 20 -46 20 -55 0 -10 9 -23 20 -30 11 -7 20 -23
20 -36 0 -12 7 -25 15 -28 8 -4 15 -12 15 -20 0 -8 27 -65 59 -127 32 -61 62
-128 65 -148 4 -20 24 -64 46 -98 22 -34 40 -65 40 -70 0 -5 7 -14 15 -21 8
-7 13 -16 10 -20 -6 -10 33 -95 63 -137 12 -17 31 -35 41 -38 11 -3 24 -19 30
-35 5 -17 15 -30 21 -30 5 0 24 -22 41 -50 17 -27 35 -50 40 -50 5 0 13 -8 17
-19 7 -18 27 -44 110 -141 47 -57 57 -97 20 -85 -13 4 -47 9 -76 12 -29 3 -55
9 -58 14 -3 5 -23 9 -44 9 -21 0 -42 5 -45 10 -3 6 -15 10 -26 10 -10 0 -19 5
-19 10 0 6 -12 10 -27 10 -16 0 -41 9 -57 19 -17 11 -33 18 -37 15 -8 -5 -170
73 -179 86 -3 3 -27 13 -55 20 -27 8 -68 24 -90 37 -22 12 -47 23 -55 23 -9 0
-30 13 -48 30 -18 16 -43 30 -55 30 -12 0 -41 20 -67 44 -43 42 -69 61 -152
106 -21 11 -38 24 -38 29 0 15 -119 131 -133 131 -13 0 -37 22 -142 129 -33
33 -63 61 -67 61 -14 0 -93 74 -215 202 -35 36 -63 64 -63 61 0 -9 -46 43 -53
60 -3 9 -17 21 -30 26 -14 5 -34 26 -47 45 -12 20 -25 36 -29 36 -7 0 -70 85
-101 137 -13 22 -25 31 -35 27 -9 -4 -15 -1 -15 8 0 16 -56 71 -83 81 -10 4
-25 20 -35 37 -9 16 -29 34 -45 39 -15 6 -27 14 -27 19 0 5 -8 12 -17 14 -10
3 -29 27 -43 54 -14 27 -40 63 -57 80 -18 18 -33 34 -33 38 0 3 -18 22 -40 42
-22 20 -40 44 -40 54 0 10 -6 23 -14 29 -8 7 -18 27 -21 44 -4 18 -18 46 -31
64 -13 17 -24 34 -24 37 0 12 -63 133 -86 165 -13 19 -24 42 -24 52 0 10 -4
21 -10 24 -5 3 -10 16 -10 29 0 12 -11 44 -23 72 -13 27 -29 72 -36 99 -11 48
-63 192 -81 227 -15 27 -38 130 -44 196 -4 34 -11 86 -17 115 -6 29 -12 81
-15 117 -2 36 -9 87 -14 113 -6 27 -8 52 -6 56 3 4 5 49 6 101 1 52 6 115 10
140 5 25 14 105 20 179 7 73 18 152 26 174 8 22 14 57 14 77 0 21 7 65 15 98
9 33 17 88 19 123 2 35 13 123 25 194 50 309 74 493 67 512 -4 9 1 38 9 64 12
34 13 53 6 67 -7 13 -6 30 3 58 8 21 17 72 20 112 4 41 21 124 37 185 17 62
37 164 45 227 13 107 32 211 56 320 5 25 12 86 14 135 3 50 9 99 13 110 10 24
31 154 31 193 0 15 4 32 9 37 15 15 41 93 55 162 7 33 19 72 28 85 30 47 67
223 87 413 5 44 19 107 31 140 12 33 33 91 46 128 23 67 71 175 120 268 13 26
24 53 24 60 0 7 8 22 19 33 15 18 83 140 149 271 8 17 24 42 34 57 11 16 17
32 14 37 -3 5 19 46 49 92 30 46 55 93 55 105 0 12 6 27 14 33 8 7 22 42 32
79 10 37 23 76 30 87 6 11 31 65 54 120 60 143 81 186 106 220 31 43 164 267
164 278 0 12 62 100 78 110 6 4 12 12 12 18 0 5 17 33 37 62 20 28 46 66 58
82 60 89 181 203 334 315 79 58 150 114 158 126 7 12 32 29 56 40 23 10 58 29
77 44 48 34 68 47 115 70 22 11 55 32 74 45 19 14 46 28 60 32 14 3 31 12 36
19 6 8 37 28 70 45 80 41 135 71 165 91 14 9 44 21 68 28 23 6 42 15 42 20 0
6 8 10 18 10 10 0 22 3 26 8 8 7 86 40 99 41 4 1 7 -3 7 -7z m2585 -697 c71
-16 133 -37 183 -64 21 -11 60 -27 87 -36 28 -9 57 -23 67 -31 9 -9 22 -14 30
-13 7 2 31 -6 53 -17 22 -12 65 -29 95 -40 30 -10 62 -24 71 -31 8 -7 22 -13
30 -13 8 0 24 -7 36 -15 11 -8 42 -22 69 -31 27 -9 58 -25 70 -35 11 -10 27
-19 36 -19 38 0 214 -165 357 -335 37 -44 76 -87 86 -95 10 -8 37 -40 59 -70
23 -31 47 -62 54 -70 33 -38 92 -125 92 -135 0 -11 24 -38 138 -160 31 -34 89
-96 127 -139 39 -42 117 -123 173 -179 60 -59 121 -130 143 -167 22 -36 55
-87 74 -113 22 -31 46 -87 66 -150 30 -101 54 -173 69 -212 16 -40 30 -103 30
-131 0 -30 51 -203 101 -339 51 -140 100 -302 119 -393 46 -219 48 -231 81
-457 7 -44 11 -108 10 -142 -2 -72 27 -320 40 -345 17 -31 20 -80 24 -318 2
-129 6 -251 9 -270 27 -173 35 -260 40 -419 4 -101 10 -236 16 -300 5 -64 7
-159 5 -211 -7 -217 -16 -380 -21 -402 -13 -54 -24 -144 -19 -157 3 -7 1 -19
-3 -25 -12 -16 -37 -184 -33 -227 4 -52 -44 -299 -75 -389 -33 -97 -53 -172
-65 -240 -12 -78 -43 -217 -77 -350 -16 -63 -37 -156 -46 -205 -18 -98 -72
-261 -131 -395 -20 -47 -41 -98 -45 -113 -5 -16 -30 -68 -56 -115 -26 -48 -55
-100 -64 -117 -9 -16 -33 -56 -53 -87 -35 -54 -73 -130 -131 -261 -18 -42 -30
-57 -45 -57 -11 0 -66 -18 -123 -40 -110 -43 -127 -56 -183 -155 -16 -27 -41
-65 -57 -83 -15 -18 -28 -40 -28 -48 0 -9 -19 -35 -42 -59 -74 -74 -86 -90
-97 -130 -6 -22 -25 -63 -43 -92 -18 -29 -52 -83 -76 -120 -42 -68 -58 -96
-107 -188 -33 -61 -124 -121 -203 -134 -28 -4 -58 -13 -66 -20 -16 -13 -45
-23 -156 -51 -41 -11 -95 -28 -120 -39 -91 -39 -149 -61 -160 -61 -6 0 -27 -7
-48 -17 -30 -13 -165 -53 -266 -78 -10 -2 -23 -9 -30 -14 -18 -15 -158 -71
-178 -71 -20 0 -97 -25 -153 -50 -35 -16 -60 -22 -140 -35 -11 -1 -49 -16 -85
-33 -37 -17 -113 -40 -175 -52 -60 -12 -126 -25 -145 -30 -87 -20 -141 -30
-215 -39 -45 -6 -94 -15 -110 -21 -51 -20 -166 -47 -250 -60 -44 -6 -112 -19
-151 -27 -55 -12 -93 -13 -175 -6 -58 4 -121 6 -141 2 -46 -7 -412 -2 -455 7
-18 3 -33 11 -33 16 0 6 -7 8 -15 5 -8 -4 -17 -2 -20 3 -4 6 -17 10 -30 10
-13 0 -27 5 -31 11 -3 6 -19 9 -35 7 -16 -3 -29 -1 -29 4 0 4 -3 7 -7 6 -8 -2
-60 12 -129 33 -17 5 -36 9 -44 9 -7 0 -36 11 -65 25 -50 23 -110 43 -240 81
-33 9 -91 31 -130 49 -163 77 -191 88 -239 94 -44 6 -123 45 -226 111 -8 6
-26 16 -40 22 -14 7 -31 21 -38 30 -7 10 -18 18 -24 18 -6 0 -34 20 -62 44
-28 24 -75 55 -105 70 -58 30 -57 29 -116 81 -22 20 -52 42 -67 51 -16 8 -28
18 -28 22 0 4 -21 31 -47 59 -27 29 -61 70 -78 93 -32 45 -76 96 -140 164 -22
24 -62 79 -88 124 -56 93 -79 194 -59 260 6 20 14 47 17 60 6 21 25 32 25 14
0 -14 91 -102 106 -102 17 0 84 -61 84 -77 0 -7 5 -13 11 -13 5 0 8 -4 5 -9
-6 -9 28 -43 62 -61 14 -7 21 -17 18 -25 -3 -10 7 -18 32 -25 22 -6 59 -31 91
-62 30 -29 73 -66 97 -83 24 -16 69 -48 100 -69 31 -22 72 -55 90 -74 19 -20
37 -33 40 -29 3 3 44 -14 91 -38 48 -25 102 -50 122 -56 46 -15 113 -50 126
-67 6 -7 20 -14 33 -15 12 0 22 -5 22 -9 0 -4 9 -8 20 -8 27 0 90 -27 104 -44
6 -7 27 -19 46 -26 19 -7 54 -22 78 -32 28 -13 53 -18 73 -14 21 4 31 1 35 -9
5 -11 23 -15 73 -15 37 0 72 5 77 10 7 7 28 7 65 0 81 -15 219 -15 254 -1 24
10 40 10 75 1 25 -7 99 -16 165 -20 66 -4 133 -13 148 -19 35 -14 157 -14 192
-1 14 5 74 19 133 31 60 11 119 29 134 40 15 10 41 19 57 19 28 0 46 5 111 33
41 18 142 78 189 114 29 22 55 33 77 33 20 0 38 7 46 18 18 25 184 126 272
166 64 30 161 62 391 133 101 31 198 88 272 159 75 72 157 136 210 163 23 11
52 31 65 44 13 13 48 39 78 57 52 32 102 77 330 300 53 52 120 113 148 135 29
22 74 59 100 83 61 56 224 165 286 191 26 12 60 30 75 40 14 10 44 25 65 32
61 21 137 108 206 231 33 59 75 122 94 138 33 29 44 49 130 220 48 95 55 116
87 245 33 135 64 242 92 315 24 65 45 139 55 194 2 15 20 57 38 93 19 35 34
68 34 73 0 5 29 71 64 147 45 96 70 164 82 223 29 151 32 164 47 220 43 162
48 204 46 344 -2 151 5 206 30 246 17 26 18 37 25 455 2 138 6 306 9 375 3 69
1 148 -5 175 -10 53 -15 96 -43 325 -10 82 -24 158 -33 175 -9 17 -20 55 -24
85 -9 73 -37 208 -50 245 -6 17 -17 73 -24 125 -7 52 -20 115 -30 140 -9 25
-20 77 -25 115 -10 76 -32 191 -41 215 -4 8 -11 37 -18 64 -6 27 -24 67 -39
90 -38 56 -181 333 -181 351 0 8 -10 25 -21 37 -45 49 -189 308 -172 308 5 0
3 4 -4 8 -6 4 -30 43 -54 87 -23 44 -50 91 -60 104 -11 13 -19 31 -19 40 0 24
-58 113 -69 107 -5 -4 -7 2 -4 12 4 17 -92 215 -122 252 -7 8 -25 38 -39 65
-14 28 -43 69 -64 90 -21 22 -69 92 -107 155 -38 63 -79 126 -91 140 -21 24
-106 146 -179 257 -33 51 -148 178 -231 255 -22 21 -87 90 -144 153 -92 102
-174 171 -314 265 -65 44 -99 81 -58 65 9 -4 44 -13 77 -20z m2049 -5422 c-3
-16 -10 -41 -14 -58 -5 -16 -7 -84 -5 -149 3 -66 1 -124 -3 -130 -5 -6 -9 -24
-10 -39 -1 -15 -8 -40 -16 -55 -14 -27 -17 -43 -35 -192 -7 -55 -27 -119 -76
-240 -36 -91 -79 -187 -95 -215 -16 -27 -36 -81 -46 -120 -9 -38 -28 -94 -41
-123 -14 -29 -26 -58 -27 -65 -7 -30 -19 -75 -31 -112 -33 -100 -59 -194 -66
-235 -15 -91 -38 -162 -67 -208 -16 -26 -44 -77 -62 -114 -18 -38 -37 -68 -41
-68 -14 0 -82 -104 -121 -184 -31 -64 -171 -206 -204 -206 -11 0 -163 -78
-192 -98 -16 -12 -34 -22 -40 -22 -5 0 -31 -20 -58 -45 -27 -25 -63 -52 -81
-59 -36 -16 -97 -69 -163 -141 -62 -68 -107 -111 -175 -170 -31 -27 -94 -84
-139 -125 -45 -41 -114 -95 -153 -118 -39 -24 -74 -50 -77 -57 -2 -7 -29 -29
-58 -49 -29 -19 -65 -46 -79 -58 -50 -44 -184 -153 -219 -179 -40 -30 -139
-69 -178 -71 -65 -3 -344 -107 -470 -174 -49 -26 -99 -46 -114 -45 -18 1 -34
-8 -51 -28 -13 -16 -48 -41 -76 -55 -28 -15 -68 -41 -89 -59 -95 -83 -141
-101 -262 -102 -100 -1 -261 -25 -281 -42 -32 -27 -81 -33 -174 -22 -49 6
-117 12 -150 14 -33 2 -82 7 -110 10 -27 4 -84 11 -125 15 -81 9 -110 17 -110
31 0 5 -6 9 -12 9 -7 0 -31 16 -52 35 -22 19 -48 37 -58 41 -10 3 -17 13 -16
22 2 9 -7 21 -19 26 -12 6 -46 48 -75 93 -29 46 -72 106 -96 132 -23 27 -52
62 -64 77 -12 16 -41 50 -65 76 -24 26 -43 53 -43 61 0 7 -15 31 -33 53 -18
21 -39 55 -47 74 -8 19 -22 46 -32 60 -10 14 -35 68 -57 120 -21 53 -55 128
-75 167 -20 40 -36 79 -36 88 0 8 -4 15 -10 15 -5 0 -10 6 -10 14 0 8 -15 36
-33 62 -37 56 -77 149 -77 180 0 12 -7 27 -15 34 -17 15 -115 205 -115 225 0
8 -11 26 -25 41 -14 15 -28 39 -31 53 -6 32 -19 77 -33 116 -70 197 -91 261
-91 289 0 17 -7 41 -15 53 -9 12 -15 26 -14 30 1 4 -3 22 -10 38 -7 17 -21 77
-32 135 -10 58 -28 137 -38 175 -49 178 -51 174 44 150 37 -9 73 -14 80 -11 7
2 17 0 22 -5 6 -6 28 1 59 16 46 24 61 26 227 32 109 3 182 1 190 -5 14 -11
54 -8 174 12 51 9 147 16 228 16 93 0 160 5 198 15 32 8 75 15 95 15 20 1 66
8 102 16 36 9 99 22 140 29 41 8 101 23 133 34 33 11 69 20 80 20 36 -1 194
20 219 30 13 5 48 12 78 16 64 8 136 26 200 50 25 9 77 23 115 30 74 15 174
38 240 56 141 38 233 57 310 64 39 4 105 18 148 31 43 13 81 23 85 22 32 -7
252 37 252 51 0 4 18 8 41 9 22 1 50 7 62 14 12 6 54 13 95 15 40 1 89 10 109
18 19 8 47 15 60 15 14 0 65 14 115 30 49 17 104 30 121 30 18 0 75 10 127 21
52 11 122 24 155 28 33 4 70 13 83 20 33 18 259 91 282 91 11 0 39 9 62 19 44
20 293 113 338 126 41 13 210 96 218 109 10 15 95 60 181 95 38 16 94 44 123
62 29 19 60 39 69 44 46 29 78 53 117 88 38 34 112 76 135 77 4 0 5 -12 1 -27z"/>
</g>
</svg>
